<svg xmlns="http://www.w3.org/2000/svg" width="56.275" height="61.422" viewBox="0 0 56.275 61.422">
  <g id="组_43256" data-name="组 43256" transform="translate(-295.951 -440.769)">
    <g id="组_43251" data-name="组 43251" transform="translate(-16.552 194.349)">
      <path id="路径_401" data-name="路径 401" d="M7348.674-3167.04h-32.183s-5.312.087-7.621,3.729-1.761,8.771-1.761,8.771v38.868a4.117,4.117,0,0,0,4.643,4.47c5.006-.133,4-3.689,9.493-3.592s4.984,4.134,10.732,4.134,5.9-4.137,10.643-4.134,5.775,4.066,9.736,4.134,5.233-5.536,5.233-5.536" transform="translate(-6992 3416)" fill="none" stroke="#333" stroke-linecap="round" stroke-linejoin="round" stroke-width="5"/>
      <path id="路径_402" data-name="路径 402" d="M7316.434-3137.566v-16.973s.548-5.129-1.761-8.771-7.622-3.729-7.622-3.729" transform="translate(-6950.262 3416)" fill="none" stroke="#333" stroke-linecap="round" stroke-linejoin="round" stroke-width="5"/>
    </g>
    <line id="直线_33" data-name="直线 33" x2="19.626" y2="0.099" transform="translate(310.874 459.401)" fill="none" stroke="#2a57f0" stroke-linecap="round" stroke-width="4"/>
    <line id="直线_34" data-name="直线 34" x2="11.626" y2="0.099" transform="translate(310.874 471.401)" fill="none" stroke="#2a57f0" stroke-linecap="round" stroke-width="4"/>
  </g>
</svg>
