<svg version="1.0" xmlns="http://www.w3.org/2000/svg" width="800" height="800" viewBox="0 0 800 800" preserveAspectRatio="xMidYMid meet">
  <g transform="translate(75.102149,741.509950) scale(0.080550,-0.080550)" fill="#000000" stroke="#000000" stroke-width="0">
    <path fill="#000000" stroke="#000000" stroke-width="0" d="M3685 5405 c-978 -89 -1844 -539 -2137 -1111 -92 -180 -123 -315 -122 -529 1 -138 5 -174 28 -259 14 -54 42 -132 63 -174 108 -220 335 -315 582 -246 63 18 556 249 776 365 l151 78 58 193 c101 336 148 479 183 554 38 85 34 82 218 108 262 37 531 51 739 37 180 -12 487 -48 522 -61 46 -18 98 -155 235 -624 31 -106 61 -189 74 -202 46 -52 818 -420 951 -454 92 -24 130 -25 223 -5 168 35 272 128 350 311 43 100 62 222 62 394 0 165 -19 274 -70 406 -247 638 -1180 1147 -2246 1224 -183 13 -465 11 -640 -5z m705 -291 c662 -68 1233 -295 1635 -650 278 -246 389 -572 305 -898 -35 -138 -85 -198 -175 -212 -57 -8 -90 5 -510 206 -316 151 -366 178 -372 200 -11 48 -103 359 -129 437 -35 106 -84 220 -141 328 l-48 90 -80 17 c-113 24 -335 55 -503 69 -184 15 -662 6 -827 -15 -229 -30 -409 -66 -427 -84 -21 -22 -118 -215 -156 -313 -17 -41 -60 -176 -97 -300 -37 -123 -73 -233 -80 -244 -18 -29 -766 -386 -822 -393 -55 -6 -139 33 -170 80 -85 128 -108 413 -47 595 62 187 198 362 409 528 365 285 922 493 1490 555 55 5 114 12 130 14 76 9 503 2 615 -10z"/>
  </g>
</svg>
