<svg xmlns="http://www.w3.org/2000/svg" xmlns:xlink="http://www.w3.org/1999/xlink" width="80" height="80" viewBox="0 0 80 80" fill="none"><path fill="#222326" d="M56 24L22 24C19.7909 24 18 25.7909 18 28L18 52C18 54.2091 19.7909 56 22 56L56 56C58.2091 56 60 54.2091 60 52L60 28C60 25.7909 58.2091 24 56 24ZM56 20C60.4183 20 64 23.5817 64 28L64 52C64 56.4183 60.4183 60 56 60L22 60C17.5817 60 14 56.4183 14 52L14 28C14 23.5817 17.5817 20 22 20L56 20Z"></path><path stroke="#4FA075" stroke-width="4" stroke-linejoin="round" stroke-linecap="round" d="M27.666 35.0547L51.666 35.0547"></path></svg>
