<svg version="1.0" xmlns="http://www.w3.org/2000/svg" width="800.000000" height="800.000000" viewBox="0 0 800.000000 800.000000" preserveAspectRatio="xMidYMid meet">
  <metadata>
    <rdf:RDF xmlns:rdf="http://www.w3.org/1999/02/02-rdf-syntax-ns#" xmlns:rdfs="http://www.w3.org/2000/01/rdf-schema#" xmlns:dc="http://purl.org/dc/elements/1.1/">
      <rdf:Description dc:format="image/svg+xml" dc:Label="1" dc:ContentProducer="001191330110MACRLGPT8B00000" dc:ProduceID="377993490" dc:ReservedCode1="hjbWZMC5z3hRSMk4BVb8ssj0nqSDcSiIsmUB5YMKFrQ=" dc:ContentPropagator="001191330110MACRLGPT8B00000" dc:PropagateID="377993490" dc:ReservedCode2="hjbWZMC5z3hRSMk4BVb8ssj0nqSDcSiIsmUB5YMKFrQ="/>
    </rdf:RDF>
  </metadata>
  <g transform="translate(-9.910981,858.880426) scale(0.103491,-0.103491)" fill="#ffffff" stroke="none">
    <path d="M2301 5684 c-92 -31 -165 -79 -231 -151 -55 -60 -113 -172 -130 -248 -7 -34 -10 -318 -8 -875 4 -936 -3 -868 90 -1005 79 -120 191 -197 330 -230 95 -22 1865 -22 1953 0 200 51 347 197 403 398 15 56 17 136 17 872 l0 810 -24 73 c-53 163 -171 289 -333 355 -53 22 -54 22 -1023 24 l-970 3 -74 -26z m1704 -583 c50 -22 91 -69 105 -119 6 -23 10 -230 10 -556 0 -508 0 -521 -21 -563 -58 -119 -210 -127 -286 -14 -23 34 -23 37 -23 362 0 181 -3 329 -7 329 -4 0 -178 -170 -388 -378 -421 -419 -419 -418 -512 -392 -53 15 -109 74 -118 124 -15 75 -5 88 401 496 l383 385 -332 5 c-227 3 -338 9 -352 17 -11 6 -35 27 -54 47 -28 29 -35 45 -39 89 -7 87 36 153 116 177 15 5 263 9 552 9 489 1 528 -1 565 -18z"/>
    <path d="M5696 5405 c-30 -11 -110 -84 -328 -302 -159 -158 -303 -309 -319 -336 -56 -86 -69 -149 -69 -337 0 -188 14 -259 69 -341 16 -24 157 -171 312 -326 315 -315 320 -318 433 -311 80 5 138 41 173 107 l23 44 0 826 c0 783 -1 828 -19 866 -48 104 -163 150 -275 110z"/>
  </g>
</svg>

