<svg version="1.0" xmlns="http://www.w3.org/2000/svg" width="800" height="800" viewBox="0 0 800 800" preserveAspectRatio="xMidYMid meet">
  <g transform="translate(78.924630,766.479895) scale(0.089339,-0.089339)" fill="#FFB800" stroke="none">
    <path d="M3523 6315 c-63 -17 -123 -56 -157 -99 -21 -28 -129 -247 -306 -621 -192 -406 -229 -467 -320 -536 -96 -72 -139 -85 -395 -114 -448 -51 -857 -107 -900 -121 -35 -12 -68 -35 -111 -78 -51 -52 -63 -71 -78 -125 -21 -75 -16 -140 15 -211 27 -60 2 -35 534 -539 270 -255 313 -301 349 -375 39 -82 56 -152 56 -237 0 -53 -36 -263 -151 -884 -35 -184 -35 -265 0 -332 30 -59 85 -111 149 -141 47 -21 64 -24 136 -20 102 5 140 24 526 253 584 348 566 340 725 339 93 0 120 -4 176 -25 60 -23 228 -116 394 -219 190 -117 577 -330 618 -341 197 -49 387 93 387 289 0 32 -40 253 -91 507 -49 248 -93 485 -96 527 -7 97 9 181 53 277 39 85 101 149 499 521 409 382 408 381 409 525 1 96 -20 148 -90 217 -77 77 -91 80 -679 153 -291 36 -547 70 -570 76 -72 20 -138 60 -202 124 -67 67 -98 126 -470 895 -107 222 -134 258 -218 296 -68 30 -129 37 -192 19z"/>
  </g>
</svg>
