<svg version="1.0" xmlns="http://www.w3.org/2000/svg" width="800.000000" height="800.000000" viewBox="0 0 800.000000 800.000000" preserveAspectRatio="xMidYMid meet">
  <metadata>
    <rdf:RDF xmlns:rdf="http://www.w3.org/1999/02/22-rdf-syntax-ns#" xmlns:rdfs="http://www.w3.org/2000/01/rdf-schema#" xmlns:dc="http://purl.org/dc/elements/1.1/">
      <rdf:Description dc:format="image/svg+xml" dc:Label="1" dc:ContentProducer="001191330110MACRLGPT8B00000" dc:ProduceID="392581054" dc:ReservedCode1="vcLT+lkrH4j9h0apyHT+qmuwJlfYJeCtq2R0X/to9d0=" dc:ContentPropagator="001191330110MACRLGPT8B00000" dc:PropagateID="392581054" dc:ReservedCode2="vcLT+lkrH4j9h0apyHT+qmuwJlfYJeCtq2R0X/to9d0="/>
    </rdf:RDF>
  </metadata>
  <g transform="translate(67.572727,704.649909) scale(0.079148,-0.079148)" fill="#000000" stroke="none">
    <path d="M5075 7614 c-139 -19 -191 -29 -267 -50 -207 -57 -358 -126 -541 -247 -120 -79 -137 -95 -1327 -1286 -1281 -1283 -1314 -1318 -1478 -1576 -225 -356 -346 -743 -359 -1155 -13 -407 74 -773 268 -1130 331 -610 927 -1031 1630 -1151 156 -26 457 -36 622 -20 404 39 821 195 1137 423 49 35 422 402 1078 1058 551 552 1002 1006 1002 1009 0 4 -24 25 -52 48 -29 23 -80 69 -113 103 l-60 60 -995 -994 c-952 -951 -1000 -997 -1105 -1066 -249 -161 -527 -267 -830 -315 -85 -13 -444 -17 -527 -6 -348 49 -634 153 -893 325 -614 409 -942 1138 -830 1846 62 389 205 708 457 1020 42 53 612 629 1280 1296 1321 1319 1261 1264 1488 1366 212 94 388 129 625 124 167 -4 257 -20 412 -71 192 -64 358 -168 503 -314 146 -147 240 -299 305 -494 53 -160 69 -275 62 -452 -14 -328 -122 -610 -338 -880 -83 -104 -2409 -2419 -2466 -2454 -279 -174 -691 -117 -913 126 -180 196 -236 490 -141 730 56 142 60 146 1059 1146 l952 954 -116 106 c-64 59 -119 107 -123 107 -7 0 -885 -880 -1632 -1636 -319 -323 -357 -371 -425 -538 -94 -229 -101 -513 -19 -731 138 -365 439 -613 815 -670 271 -42 523 11 740 154 55 36 2407 2378 2507 2496 316 373 473 904 403 1365 -102 675 -601 1200 -1280 1346 -93 21 -150 26 -300 29 -102 2 -198 1 -215 -1z"/>
  </g>
</svg>