<svg version="1.0" xmlns="http://www.w3.org/2000/svg" width="800.000000" height="800.000000" viewBox="0 0 800.000000 800.000000" preserveAspectRatio="xMidYMid meet">
  <metadata>
    <rdf:RDF xmlns:rdf="http://www.w3.org/1999/02/22-rdf-syntax-ns#" xmlns:rdfs="http://www.w3.org/2000/01/rdf-schema#" xmlns:dc="http://purl.org/dc/elements/1.1/">
      <rdf:Description dc:format="image/svg+xml" dc:Label="1" dc:ContentProducer="001191330110MACRLGPT8B00000" dc:ProduceID="377973064" dc:ReservedCode1="bvH/EQWcztw7MvDktYw177pLX678HiZ7PGjQOvkDKXE=" dc:ContentPropagator="001191330110MACRLGPT8B00000" dc:PropagateID="377973064" dc:ReservedCode2="bvH/EQWcztw7MvDktYw177pLX678HiZ7PGjQOvkDKXE="/>
    </rdf:RDF>
  </metadata>
  <g transform="translate(27.368854,768.023483) scale(0.086826,-0.086826)" fill="#000000" stroke="none">
    <path d="M3980 6653 c-59 -7 -160 -42 -219 -75 -31 -17 -88 -63 -127 -102 -105 -106 -153 -201 -175 -350 l-11 -73 -112 -57 c-61 -31 -141 -79 -176 -106 -36 -27 -69 -49 -73 -50 -4 0 -138 132 -297 293 l-289 292 -251 -250 c-137 -137 -250 -254 -250 -260 0 -6 142 -152 316 -325 l316 -315 -12 -30 c-6 -16 -25 -70 -41 -119 -64 -186 -62 -157 -68 -1031 l-6 -800 -114 -200 c-213 -376 -226 -410 -219 -595 6 -139 24 -192 98 -285 28 -36 52 -66 53 -67 1 -1 308 -5 681 -8 l679 -5 16 -50 c23 -69 52 -114 108 -167 80 -74 131 -93 248 -93 87 0 107 3 155 26 31 14 72 40 92 58 50 44 105 128 119 184 l11 47 662 0 662 0 158 -160 c87 -88 162 -160 166 -160 5 0 10 4 12 10 2 5 113 120 247 255 l244 245 -479 480 c-263 265 -481 483 -484 486 -3 3 -8 357 -11 787 -5 759 -6 785 -28 880 -104 463 -385 825 -802 1034 -61 30 -112 60 -113 67 -2 6 -10 49 -19 95 -25 131 -72 219 -171 317 -64 64 -100 92 -157 119 -114 54 -218 72 -339 58z m212 -290 c67 -30 133 -96 175 -174 27 -52 28 -60 28 -191 l0 -137 83 -26 c200 -63 354 -157 513 -315 191 -190 295 -393 344 -671 12 -69 15 -222 15 -873 l0 -789 425 -426 c234 -234 424 -429 422 -432 -1 -4 -28 -34 -59 -68 l-58 -62 -1859 1863 -1859 1863 66 63 67 63 287 -291 288 -292 82 77 c144 133 298 226 483 290 l80 28 0 131 c0 121 2 135 27 188 85 183 276 260 450 181z m-24 -2626 c727 -727 1322 -1326 1322 -1330 0 -4 -297 -7 -659 -7 l-659 0 -4 -125 -3 -125 -32 -32 c-59 -58 -150 -36 -179 43 -7 18 -13 80 -13 137 l-1 102 -733 0 c-617 0 -736 2 -753 14 -16 12 -20 29 -22 98 -5 109 3 130 170 425 75 131 143 252 152 270 14 29 16 109 16 810 1 810 2 840 45 986 9 31 20 57 23 57 4 0 602 -595 1330 -1323z"/>
  </g>
</svg>

