<svg xmlns="http://www.w3.org/2000/svg" width="18.164" height="18.165" viewBox="0 0 18.164 18.165">
  <g id="组_43258" data-name="组 43258" transform="translate(-1.901 -1.899)">
    <path id="路径_402" data-name="路径 402" d="M381.829,2.2a9.048,9.048,0,0,1,5.844.411L387.524,9.2,381.829,2.2Z" transform="translate(-373.164 0)" fill="#f57659"/>
    <path id="路径_403" data-name="路径 403" d="M71.2,43.476a9.069,9.069,0,0,1,4.423-3.842l4.551,4.759L71.2,43.476Z" transform="translate(-68.066 -37.063)" fill="#f0b360"/>
    <path id="路径_404" data-name="路径 404" d="M2.2,319.91a9.048,9.048,0,0,1,.411-5.844l6.583.148L2.2,319.91Z" transform="translate(0 -306.609)" fill="#efde58"/>
    <path id="路径_405" data-name="路径 405" d="M43.545,457.839a9.088,9.088,0,0,1-1.852-1.427,8.964,8.964,0,0,1-1.988-3l4.759-4.549-.919,8.972Z" transform="translate(-37.131 -439.009)" fill="#bbef5c"/>
    <path id="路径_406" data-name="路径 406" d="M317.559,619.65a9.016,9.016,0,0,1-3.525-.713l.149-6.583,5.695,6.994a9.1,9.1,0,0,1-2.318.3Z" transform="translate(-306.576 -599.586)" fill="#61f15e"/>
    <path id="路径_407" data-name="路径 407" d="M448.831,717.1l8.974.918a9.092,9.092,0,0,1-4.424,3.841l-4.551-4.759Z" transform="translate(-438.973 -702.463)" fill="#5be4ee"/>
    <path id="路径_408" data-name="路径 408" d="M612.32,387.489l6.994-5.7a9.059,9.059,0,0,1-.411,5.844l-6.583-.148Z" transform="translate(-599.551 -373.13)" fill="#5c9bf6"/>
    <path id="路径_409" data-name="路径 409" d="M717.979,71.235a9.056,9.056,0,0,1,3.842,4.422l-4.76,4.551.918-8.972Z" transform="translate(-702.427 -68.102)" fill="#6d58f1"/>
  </g>
</svg>
