<svg xmlns="http://www.w3.org/2000/svg" width="19.112" height="16.456" viewBox="0 0 19.112 16.456">
  <path id="路径_412" data-name="路径 412" d="M16.888,16.6l-3.345-2.08H11.806A5.017,5.017,0,0,1,9.059,13.7h.358A7.287,7.287,0,0,0,16.585,6.31a7.681,7.681,0,0,0-.271-1.995,5.413,5.413,0,0,1,.363,9.556l.214,2.734ZM3.439,14.932l-.358-3.4A6.165,6.165,0,0,1,.261,6.31,6.077,6.077,0,0,1,6.234.149H9.418A6.077,6.077,0,0,1,15.391,6.31,6.077,6.077,0,0,1,9.418,12.47H6.17a.668.668,0,0,0-.068,0L3.443,14.938Zm4.58-12.4a.6.6,0,0,0-.6.6V9.1a.6.6,0,1,0,1.195,0V3.132a.6.6,0,0,0-.6-.6Zm2.389,1.195a.6.6,0,0,0-.6.6V7.91a.6.6,0,1,0,1.195,0V4.327a.6.6,0,0,0-.6-.6Zm-4.778,0a.6.6,0,0,0-.6.6V7.91a.6.6,0,0,0,1.195,0V4.327a.6.6,0,0,0-.6-.6ZM12.8,4.924a.6.6,0,0,0-.6.6V6.716a.6.6,0,1,0,1.195,0V5.521a.6.6,0,0,0-.6-.6Zm-9.557,0a.6.6,0,0,0-.6.6V6.716a.6.6,0,1,0,1.195,0V5.521a.6.6,0,0,0-.6-.6Z" transform="translate(-0.26 -0.149)" fill="#ee6751"/>
</svg>
