<svg t="1771322131982" class="icon" viewBox="0 0 1024 1024" version="1.1" xmlns="http://www.w3.org/2000/svg" p-id="1327" width="200" height="200"><path d="M680.2 744.63l-38.6 3C603.67 750.54 550 752 512 752c-38.25 0-92.11-1.46-130.27-4.4l-38.61-3c-71.7-5.53-128.63-60.51-134.36-129.75l-3.36-40.75c-2.8-33.9-2.8-89.38 0-123.28l3.37-40.82c5.73-69.24 62.66-124.22 134.36-129.75l38.61-3c38-2.94 91.79-4.4 129.93-4.4s91.88 1.46 129.93 4.4l38.6 3c71.7 5.57 128.63 60.55 134.36 129.75l3.09 37.28c3 36.74 3.23 109.74 0 130.28l-3.09 37.28c-5.73 69.28-62.66 124.26-134.36 129.79z" fill="#CAE0FF" p-id="1328"></path><path d="M874 426.72H131.5a27.5 27.5 0 0 1 0-55H874a27.5 27.5 0 0 1 0 55zM744.5 698.72h-108a27.5 27.5 0 0 1 0-55h108a27.5 27.5 0 0 1 0 55z" fill="#1A5F8E" p-id="1329"></path><path d="M511.68 857.59c-47.06 0-117.3-1.82-168.57-5.92l-49.43-3.95A215.07 215.07 0 0 1 96.41 650.45l-4.32-54.07c-3.69-46.27-3.69-121.57 0-167.84l4.32-54.08A215.07 215.07 0 0 1 293.68 177.2l49.43-3.95c51.23-4.09 121.58-5.93 168.56-5.93s117.33 1.84 168.56 5.93l49.44 3.95a215.07 215.07 0 0 1 197.26 197.26l4 49.44c3.85 48.16 4.49 145.82-0.07 178l-3.88 48.53a215.07 215.07 0 0 1-197.31 197.29l-49.44 3.95c-51 4.08-121.2 5.91-168.11 5.92z m0-635.27c-45.89 0-114.46 1.78-164.18 5.75l-49.43 4a160.09 160.09 0 0 0-146.83 146.77l-4.32 54.08c-3.51 43.86-3.51 115.22 0 159.08l4.32 54.07a160.07 160.07 0 0 0 146.82 146.82l49.43 4c49.91 4 118.64 5.74 164.62 5.75 45.81 0 114.21-1.79 163.74-5.75l49.44-4a160.07 160.07 0 0 0 146.82-146.82l3.95-49.43c0.05-0.65 0.13-1.3 0.22-1.95 3.69-24.21 3.56-119.08-0.22-166.41l-3.95-49.44A160.09 160.09 0 0 0 725.29 232l-49.44-4c-49.72-3.9-118.28-5.68-164.18-5.68z" fill="#1A5F8E" p-id="1330"></path></svg>
