<svg xmlns="http://www.w3.org/2000/svg" viewBox="0 0 1578 1024" width="200" height="200"><path d="M364.826743 920.231537l115.619238-514.659085h-3.935304a36.047387 36.047387 0 0 0-13.930977 4.092717c-1.967652 10.310497-7.870608 39.353042-11.963325 51.473779a377.789205 377.789205 0 0 0-7.870608 45.255998l-1.967652 2.046358h-49.820952l-1.967652-2.046358 11.963325-49.427421c9.995673-45.255998 11.963325-61.784276 15.741217-84.372922l1.967652-2.046358c21.958998-4.092716 27.94066-4.092716 53.834962-7.870609l1.967652 2.046359-4.01401 14.403213c4.01401-2.046358 7.870608-6.139075 11.963324-7.870608 1.967652-2.046358 4.01401-2.046358 7.870609-4.092717l59.816624-261.461612A132.383634 132.383634 0 0 1 671.701766 2.754713h-362.835048A130.494688 130.494688 0 0 0 187.265817 105.702271L3.801935 920.939892a78.706084 78.706084 0 0 0 75.793959 102.947558h360.946103a77.761611 77.761611 0 0 1-75.79396-102.947558zM328.936769 491.991733a148.911911 148.911911 0 0 1-71.779949 16.449571c-21.958998 0-59.816624-4.092716-71.779949-26.760068a42.343873 42.343873 0 0 1-7.870608-26.760069l4.01401-37.070566 1.967652-10.310497 29.908312-133.800343 1.967652-7.870608a417.929307 417.929307 0 0 0 65.798287 0v2.046358c-5.981662 16.449572-33.922322 133.800343-33.922322 133.800343l-5.981663 35.024208v6.139074a27.704542 27.704542 0 0 0 29.908312 26.760069 52.575664 52.575664 0 0 0 29.908312-10.310497 101.688261 101.688261 0 0 0 23.611825-57.612854s27.94066-129.707627 27.94066-137.971766a388.33582 388.33582 0 0 0 55.802614 0v2.046359c-5.981662 16.449572-33.922322 140.018124-33.922322 140.018124l-4.01401 12.356855a95.549186 95.549186 0 0 1-41.556813 73.826307z" fill="#D43634"/><path d="M797.552795 920.231537l29.908312-135.846701h-35.889975a28.727721 28.727721 0 0 1-13.930977-2.046358 13.616153 13.616153 0 0 1-7.870608-10.310497 107.355099 107.355099 0 0 1 4.01401-18.49593l61.784276-209.987833h43.839289l-5.981662 22.667352 5.981662-6.139074 11.963325-51.473779h-27.94066v-2.046359c1.967652-7.870608 4.01401-18.49593 5.981663-26.760068l1.967652-12.356856a354.177379 354.177379 0 0 0 7.870608-49.42742c0-4.092716 1.967652-14.403213-9.995672-14.403214a60.052742 60.052742 0 0 0-15.741217 4.092717c-1.967652 10.310497-7.870608 39.353042-11.963325 51.473779a377.789205 377.789205 0 0 0-7.870609 45.255998l-1.967652 2.046358h-49.820951l-1.967652-2.046358 11.963325-49.427421a559.915084 559.915084 0 0 0 13.930977-84.372922l1.967652-2.046358c21.958998-4.092716 27.94066-4.092716 53.834961-7.870609l1.967652 2.046358-4.01401 14.403214c4.01401-2.046358 7.870608-6.139075 11.963325-7.870609a72.488304 72.488304 0 0 1 31.875964-7.870608 28.885133 28.885133 0 0 1 17.944987 4.092716l57.848972-261.461612A132.777164 132.777164 0 0 1 1102.853696 1.101885h-432.883464a130.573394 130.573394 0 0 0-121.6009 102.947558l-57.848972 261.461612a57.534148 57.534148 0 0 1 23.611825-4.092716 29.908312 29.908312 0 0 1 27.94066 16.449572 105.230035 105.230035 0 0 1-4.01401 53.520137l-4.01401 14.403213a514.422967 514.422967 0 0 0-9.995673 57.612854l-5.981662 6.139075H468.246538v-2.046359c1.967652-7.870608 4.01401-18.49593 5.981663-26.760068l1.967652-12.356855a354.177379 354.177379 0 0 0 7.870608-49.427421c0-4.092716 1.967652-12.356855-5.981662-14.403214l-115.619238 514.659085a78.706084 78.706084 0 0 0 75.793959 102.947558h434.693704a77.131963 77.131963 0 0 1-75.79396-100.9012z m15.741217-360.237747l-9.995673 32.977849h-69.34006l-7.870609 6.139074c-4.01401 4.092716-4.01401 2.046358-7.870608 4.092717a49.427421 49.427421 0 0 1-23.611825 6.139074h-21.958998l9.995673-30.852785h5.981662c5.981662 0 9.995673 0 11.963325-2.046358a56.038732 56.038732 0 0 0 7.870608-10.310497l11.963325-24.71371h51.86731l-7.870609 18.49593zM627.862477 389.122881l-9.995673 41.163282c-1.967652 7.870608-4.01401 18.49593-5.981662 26.760068a179.607284 179.607284 0 0 1-7.870608 30.852785 87.285047 87.285047 0 0 0-4.014011 18.49593h-57.848972a63.594516 63.594516 0 0 1 5.981663-18.49593c1.967652-4.092716 1.967652-7.870608 5.981662-18.495929 4.01401-14.403213 5.981662-24.71371 7.870609-35.024208 1.967652-7.870608 5.981662-32.977849 7.870608-41.163282-1.967652-6.139075 1.967652-12.356855 9.995673-18.49593a43.839289 43.839289 0 0 1 41.871637-4.092716 12.750386 12.750386 0 0 1 6.375192 18.417224z m9.995673 47.22365a111.526521 111.526521 0 0 1 25.894302-53.520137 82.483976 82.483976 0 0 1 59.816624-20.620994 56.825793 56.825793 0 0 1 47.853299 18.49593 69.969709 69.969709 0 0 1 5.981662 55.566495 99.641903 99.641903 0 0 1-21.958997 47.223651 83.900686 83.900686 0 0 1-63.830635 24.71371 96.414953 96.414953 0 0 1-31.875964-6.139074c-29.672194-12.120737-25.658183-45.01988-21.722879-65.640875z m107.669923 347.959599h-57.848972a37.77892 37.77892 0 0 1-13.930977-2.046358 43.445759 43.445759 0 0 1-9.995672-6.139075c-1.967652-4.092716-5.981662-6.139075-4.014011-14.403213l15.741217-57.612854h-27.94066l9.995673-32.977849h27.94066l7.870608-26.760069h-27.94066l9.995673-30.852785h125.929735l-9.995673 30.852785h-49.506127l-7.870608 26.760069h51.867309l-7.870608 32.977849h-51.86731l-11.963325 43.20964c-1.967652 4.092716 11.963325 6.139075 17.944988 6.139075l25.894301-4.092717z" fill="#034582"/><path d="M869.332744 576.364655l-9.995673 35.024208a34.551971 34.551971 0 0 0 7.870608-6.139075l5.981663-28.806427zM697.832186 477.509813c5.981662 0 9.995673-4.092716 13.930977-10.310497a172.287618 172.287618 0 0 0 11.963325-32.899143c5.981662-24.71371 4.01401-39.353042-7.870609-39.353042-15.741217 0-21.958998 20.620994-27.94066 43.20964a109.007927 109.007927 0 0 0-4.01401 22.667352c3.935304 16.764396 13.930977 16.764396 13.930977 16.764396z m125.929735 259.730078a36.99186 36.99186 0 0 0-1.967652 10.310497c1.967652 2.046358 4.01401 4.092716 5.981662 4.092717h5.981663l17.944987-80.280206h-9.995673z m31.875964-111.132991l-4.01401 14.403214h9.995672l4.014011-14.403214z" fill="#034582"/><path d="M1192.42122 477.588519a27.389717 27.389717 0 0 0 19.912639-10.310497 69.182648 69.182648 0 0 0 5.981662-12.356855 75.243017 75.243017 0 0 0 4.014011-20.620994 26.917481 26.917481 0 0 0 1.967652-12.356855c1.967652-16.449572-4.01401-26.760069-13.930977-26.760069-15.741217 0-21.958998 20.620994-27.94066 43.20964a109.086633 109.086633 0 0 0-4.01401 22.667353c4.01401 16.528278 14.009683 16.528278 14.009683 16.528277z m-269.174809 162.60677l4.014011-14.403213h-63.830635l-4.01401 14.403213h53.834962c7.949315 0 9.995673 2.125064 9.995672 0z" fill="#107C84"/><path d="M1497.486002 4.092716h-392.822066a134.66611 134.66611 0 0 0-123.647259 102.947559l-57.848972 261.461612a20.935818 20.935818 0 0 1 9.995673 12.356855 105.230035 105.230035 0 0 1-4.01401 53.520137l-4.014011 14.403214a512.534021 512.534021 0 0 0-9.995672 57.612853l-1.967652 2.046358h-21.958998l-11.963325 51.47378a69.654885 69.654885 0 0 1 15.741217-10.310498 228.247644 228.247644 0 0 1 31.875964-7.870608h69.812297l-23.611825 82.326564a65.089932 65.089932 0 0 1-11.963325 26.760069 34.473265 34.473265 0 0 1-11.963325 12.356855 31.482434 31.482434 0 0 1-15.741217 6.139075h-79.729263l-17.944987 80.280206 23.611825-2.046359-9.995673 37.070566h-19.912639l-31.875964 135.846702a78.706084 78.706084 0 0 0 75.793959 102.947558h392.822067a134.66611 134.66611 0 0 0 123.647258-102.947558L1573.279961 107.276393a78.706084 78.706084 0 0 0-75.793959-102.947558z m-281.216839 360.080336a43.603171 43.603171 0 0 1 17.944987 14.403213v-6.139074l1.967652-2.046358c23.611825-4.092716 29.908312-4.092716 55.802614-7.870609v1.652828c-4.01401 18.49593-9.995673 39.353042-13.930977 57.612854-9.995673 41.163282-11.963325 61.784276-15.741217 82.326564l-1.967652 2.046358h-51.867309l-1.967652-2.046358c0-2.046358 1.967652-6.139075 1.967652-7.870609a43.917995 43.917995 0 0 1-25.894302 12.356856 68.474293 68.474293 0 0 1-27.94066-6.139075c-29.908312-12.356855-25.894302-47.223651-21.958997-65.876993a111.526521 111.526521 0 0 1 25.894301-53.520137 67.372408 67.372408 0 0 1 57.848972-18.49593z m-271.221166 144.11084l37.857626-162.60677 15.741217-74.141131a47.853299 47.853299 0 0 0 1.967652-7.870609 627.130079 627.130079 0 0 0 67.765939 0h15.741217c33.922322 0 61.784276 0 77.761611 20.620994a48.404242 48.404242 0 0 1 7.870608 28.806427c0 7.870608-1.967652 16.449572-1.967652 22.667353a113.57288 113.57288 0 0 1-37.857626 63.830634 150.328621 150.328621 0 0 1-97.674251 22.667352h-4.01401l-4.014011 4.092717c0 2.046358-7.870608 32.977849-7.870608 32.977849s-7.870608 43.20964-9.995673 51.473779a394.317482 394.317482 0 0 0-61.233333-2.282477z m13.930977 187.320481a33.528792 33.528792 0 0 1-7.870609 14.403213 29.672194 29.672194 0 0 1-23.611825 7.870609h-23.611825v22.667352c0 6.139075 1.967652 6.139075 1.967652 6.139074a6.926135 6.926135 0 0 0 4.01401 2.046359h7.870608l23.611826-2.046359-11.963325 37.070566h-25.894302a86.576693 86.576693 0 0 1-37.857626-4.092716 9.287318 9.287318 0 0 1-4.014011-12.356855l1.967652-88.544345h41.871637v18.49593h9.995673c4.01401 0 5.981662 0 7.870608-2.046359s1.967652-2.046358 1.967653-4.092716l4.01401-14.403213h33.922322z m147.573908 88.544345h-45.885647l4.01401-10.310497h-91.771294l9.995672-30.852785h9.995673l47.853299-166.778193 9.995673-32.977849h45.885647l-4.01401 16.449571a116.485005 116.485005 0 0 1 23.611825-12.356855c9.995673-2.046358 57.848972-4.092716 73.747601-4.092716h49.820951v18.495929c0 4.092716 1.967652 4.092716 7.870609 4.092717h7.870608l-7.870608 32.977849h-25.894302c-23.611825 2.046358-31.875964-7.870608-31.875964-20.620994v-18.49593l-4.01401 16.449572h-15.741217l-47.695887 165.046659h11.963324l-9.995672 32.977849h-13.930977l-4.01401 10.310497z m205.42288-146.157199h-49.820952l-7.870608 26.760069h49.820951l-7.870608 26.760068h-53.834962l-9.995673 12.356856h21.958998l5.981662 35.024207c0 4.092716 0 6.139075 1.967652 7.870609s7.870608 2.046358 11.963325 2.046358h5.588132l-9.995672 35.024207h-27.94066c-5.981662 0-7.870608-4.092716-11.963325-6.139074a13.930977 13.930977 0 0 1-7.870609-12.356856l-5.981662-35.024207-23.611825 35.024207a42.029049 42.029049 0 0 1-35.889975 18.49593h-34.15844l9.995672-30.852785h13.930977a84.058098 84.058098 0 0 0 9.995673-2.046358c1.967652-2.046358 4.01401-2.046358 7.870608-6.139075l35.889975-51.473779h-47.853299l7.870608-28.806426h53.834962l7.870608-26.760069h-53.834962l9.995673-30.852785h149.54156z m31.875964-96.729777l-1.967652 2.046358-19.91264 35.024207a37.227978 37.227978 0 0 1-35.889974 20.620994h-29.908312l9.995673-30.852785h5.981662c4.01401 0 5.981662 0 7.870608-2.046358 1.967652 0 1.967652-2.046358 4.014011-4.092716l9.995672-18.49593c15.741217-24.71371 19.912639-35.024208 35.889975-61.784276-1.967652-30.852785-4.01401-41.163282-5.981663-59.737918a233.993189 233.993189 0 0 1-4.01401-37.070566 140.332948 140.332948 0 0 0-5.981662-37.070566v-2.046358l1.967652-2.046358a498.366926 498.366926 0 0 0 49.820951-7.870608l1.967652 2.046358 4.014011 67.923351v4.092716c13.930977-30.852785 13.930977-22.667352 29.908312-61.784276v-2.046358l1.967652-2.046359c21.958998-2.046358 25.894302-4.092716 51.867309-7.870608l1.967652 2.046358c-1.81024-0.550943-99.563197 174.412683-113.494173 203.21911z" fill="#107C84"/><path d="M937.098682 594.939291l5.981663-18.49593h-67.765939l-5.981662 28.806427a58.08509 58.08509 0 0 1 29.908312-10.310497z m139.545888-218.251972a46.357884 46.357884 0 0 0 25.894301-37.070565 30.459255 30.459255 0 0 0-13.930977-37.070566l-33.922322-2.046358h-5.981662v6.139074l-15.741217 72.094774v4.092716h7.870608a69.969709 69.969709 0 0 0 35.889975-6.139075z m-37.857627 364.409171h37.857627l9.995672-37.070566h-37.857626z m47.853299-164.731835l-11.963324 41.163282a194.876265 194.876265 0 0 1 21.958997-7.870608 99.012254 99.012254 0 0 1 19.912639-2.046358l7.870609-30.852785z m-31.875964 104.993917a120.656427 120.656427 0 0 1 21.958998-10.310497c7.870608-2.046358 19.912639-4.092716 19.912639-4.092717l9.995673-30.852785h-37.621509z" fill="#107C84"/></svg>
