<svg xmlns="http://www.w3.org/2000/svg" xmlns:xlink="http://www.w3.org/1999/xlink" width="64" height="64" viewBox="0 0 64 64" fill="none"><g transform="translate(0.33, 0.33) scale(0.95)">
<g filter="url(#filter_wtIleMKhF67uaAjbITX17)"><path d="M29.19 20.53L29.19 20.74C30.2778 20.74 31.3707 20.7688 32.47 20.78C36.4434 20.78 39.34 23.6081 39.34 27.52L39.34 32.55C39.34 36.4619 36.4434 39.29 32.47 39.29C30.8783 39.3237 29.2831 39.34 27.68 39.34C26.0769 39.34 24.4617 39.3237 22.87 39.29C18.8966 39.29 16 36.4619 16 32.55L16 27.52C16 23.6081 18.8951 20.78 22.88 20.78C24.3801 20.7575 25.9127 20.73 27.47 20.73L27.47 20.54C27.47 19.7644 26.8187 19.14 26.04 19.14L24.91 19.14C23.6161 19.14 22.56 18.099 22.56 16.84C22.56 16.3791 22.9505 16 23.42 16C23.9009 16 24.28 16.3791 24.28 16.84C24.28 17.1772 24.5665 17.45 24.91 17.45L26.04 17.45C27.7691 17.4612 29.1785 18.8438 29.19 20.53ZM27.1848 30.0306C27.1848 29.5695 26.7943 29.1806 26.3248 29.1806L25.1248 29.1806L25.1248 28.0006C25.1248 27.5395 24.7343 27.1606 24.2648 27.1606C23.7839 27.1606 23.4048 27.5395 23.4048 28.0006L23.4048 29.1806L22.1948 29.1806C21.7253 29.1806 21.3348 29.5695 21.3348 30.0306C21.3348 30.5029 21.7253 30.8706 22.1948 30.8706L23.4048 30.8706L23.4048 32.0606C23.4048 32.5217 23.7839 32.9106 24.2648 32.9106C24.7343 32.9106 25.1248 32.5217 25.1248 32.0606L25.1248 30.8706L26.3248 30.8706C26.7943 30.8706 27.1848 30.5029 27.1848 30.0306ZM31.3083 27.2844C31.7782 27.2844 32.1683 27.6647 32.1683 28.1244C32.1683 28.5953 31.7782 28.9644 31.3083 28.9644L31.1983 28.9644C30.7169 28.9644 30.3383 28.5953 30.3383 28.1244C30.3383 27.6647 30.7169 27.2844 31.1983 27.2844L31.3083 27.2844ZM33.2634 31.1506C33.7333 31.1506 34.1234 31.5309 34.1234 31.9906C34.1234 32.4615 33.7333 32.8306 33.2634 32.8306L33.1534 32.8306C32.6709 32.8306 32.2934 32.4615 32.2934 31.9906C32.2934 31.5309 32.6709 31.1506 33.1534 31.1506L33.2634 31.1506Z" fill-rule="evenodd" fill="#40BCFC"></path></g>
</g><defs><filter id="filter_wtIleMKhF67uaAjbITX17" x="0" y="0" width="63.3399658203125" height="63.340087890625" filterUnits="userSpaceOnUse" color-interpolation-filters="sRGB"><feFlood flood-opacity="0" result="feFloodId_wtIleMKhF67uaAjbITX17"/><feColorMatrix in="SourceAlpha" type="matrix" values="0 0 0 0 0 0 0 0 0 0 0 0 0 0 0 0 0 0 127 0" result="hardAlpha_wtIleMKhF67uaAjbITX17"/><feOffset dx="4" dy="4"/><feGaussianBlur stdDeviation="10"/><feComposite in2="hardAlpha_wtIleMKhF67uaAjbITX17" operator="out"/><feColorMatrix type="matrix" values="0 0 0 0 0.25098039215686274 0 0 0 0 0.7372549019607844 0 0 0 0 0.9882352941176471 0 0 0 0.3 0"/><feBlend mode="normal" in2="feFloodId_wtIleMKhF67uaAjbITX17" result="dropShadow_1_wtIleMKhF67uaAjbITX17"/><feBlend mode="normal" in="SourceGraphic" in2="dropShadow_1_wtIleMKhF67uaAjbITX17" result="shape_wtIleMKhF67uaAjbITX17"/></filter></defs></svg>
