<svg version="1.0" xmlns="http://www.w3.org/2000/svg" width="800.000000" height="800.000000" viewBox="0 0 800.000000 800.000000" preserveAspectRatio="xMidYMid meet">
  <metadata>
    <rdf:RDF xmlns:rdf="http://www.w3.org/1999/02/22-rdf-syntax-ns#" xmlns:rdfs="http://www.w3.org/2000/01/rdf-schema#" xmlns:dc="http://purl.org/dc/elements/1.1/">
      <rdf:Description dc:format="image/svg+xml" dc:Label="1" dc:ContentProducer="001191330110MACRLGPT8B00000" dc:ProduceID="378003029" dc:ReservedCode1="jAxxiVX10vhozxWYKSmyTp/TaEn9YE+qFpnl9rQzdjI=" dc:ContentPropagator="001191330110MACRLGPT8B00000" dc:PropagateID="378003029" dc:ReservedCode2="jAxxiVX10vhozxWYKSmyTp/TaEn9YE+qFpnl9rQzdjI="/>
    </rdf:RDF>
  </metadata>
  <g transform="translate(45.415796,763.072217) scale(0.088666,-0.088666)" fill="#ffffff" stroke="none">
    <path d="M3710 6439 c-434 -50 -873 -238 -1227 -525 -50 -41 -140 -126 -200 -188 -329 -342 -534 -745 -620 -1216 -38 -208 -43 -512 -13 -720 37 -257 107 -483 225 -725 113 -232 256 -428 459 -630 676 -672 1655 -875 2531 -525 595 238 1099 742 1335 1335 202 507 221 1032 59 1560 -264 858 -1039 1507 -1947 1630 -123 16 -472 19 -602 4z m1277 -1833 c246 -66 390 -303 328 -541 -34 -128 -127 -239 -252 -298 l-68 -32 -1006 0 -1005 0 -76 38 c-137 67 -226 189 -250 340 -14 94 -2 164 47 264 53 108 174 204 293 232 20 5 465 9 987 10 776 1 959 -2 1002 -13z"/>
  </g>
</svg>

