<svg xmlns="http://www.w3.org/2000/svg" width="16.838" height="10.323" viewBox="0 0 16.838 10.323">
  <path id="路径_363" data-name="路径 363" d="M12.918,192.19a.762.762,0,0,1,.134,1.071l-6.841,8.8a.763.763,0,0,1-1.117.1l-3.583-3.258a.763.763,0,1,1,1.027-1.129l2.973,2.7,6.336-8.145a.763.763,0,0,1,1.071-.134Zm4.887,0a.763.763,0,0,1,.133,1.071l-6.841,8.8a.763.763,0,0,1-1.084.124l-1.3-1.059a.764.764,0,0,1,.964-1.185l.7.566,6.363-8.179a.763.763,0,0,1,1.071-.134Z" transform="translate(-1.261 -192.029)" fill="#999"/>
</svg>
