<svg xmlns="http://www.w3.org/2000/svg" viewBox="0 0 1024 1024" width="200" height="200">
  <path d="M509.074286 261.741714h432.530285a32.438857 32.438857 0 0 0 0-64.877714H509.110857a32.438857 32.438857 0 1 0 0 64.877714zM941.604571 337.444571H659.017143a32.438857 32.438857 0 1 0 0 64.877715h283.282286a32.438857 32.438857 0 0 0 0-64.877715h-0.658286zM941.604571 477.988571h-134.070857a32.438857 32.438857 0 1 0 0 64.877715h134.070857a32.438857 32.438857 0 1 0 0-64.877715z" fill="#266EFF"></path>
  <path d="M81.261714 124.891429c-71.606857 58.514286-64.950857 168.118857 13.458286 342.308571 75.117714 166.948571 314.441143 386.194286 476.525714 448.365714l11.702857 4.461715 22.089143 8.155428 10.496 3.657143 19.821715 6.656c101.924571 32.694857 145.481143 22.308571 216.649142-35.547429 91.574857-74.386286 93.878857-137.581714 1.718858-222.500571-87.259429-80.384-146.285714-84.297143-233.984-22.308571-26.697143 18.834286-74.24-0.073143-145.481143-72.338286l-9.362286-8.192-17.773714-15.908572a1290.313143 1290.313143 0 0 1-16.530286-15.323428l-15.36-14.738286-14.116571-14.116571c-6.802286-6.948571-13.129143-13.641143-19.017143-20.114286l-11.227429-12.690286a482.742857 482.742857 0 0 1-14.738286-17.92l-8.448-11.227428c-32.914286-45.568-37.449143-76.068571-19.382857-92.269715 87.588571-78.628571 75.154286-147.675429-4.461714-241.078857l-12.105143-13.897143C246.491429 35.766857 166.546286 55.186286 81.261714 124.928z m176.054857 32.329142l12.178286 13.897143c53.467429 62.317714 58.587429 91.721143 14.811429 133.229715l-4.864 4.498285c-72.374857 64.950857-35.328 159.049143 90.916571 281.088l16.969143 16.091429 17.956571 16.347428 18.980572 16.713143c88.685714 90.148571 167.424 123.062857 231.862857 82.651429l17.554286-11.958857c47.067429-31.012571 69.412571-29.184 118.235428 13.458285l12.251429 11.008 11.044571 10.349715 9.508572 9.362285c31.817143 32.512 31.744 47.250286 0.987428 75.373715l-9.142857 8.045714-10.678857 8.813714-10.093714 8.045715a374.491429 374.491429 0 0 1-4.790857 3.657142l-9.142858 6.582858c-32.804571 22.454857-57.417143 25.490286-111.652571 8.813714l-15.542857-5.010286-17.188572-6.034286-19.017142-6.948571-20.992-7.972571c-144.457143-55.478857-369.005714-261.156571-436.077715-410.112-66.121143-146.944-70.875429-225.426286-33.828571-255.707429C186.368 133.485714 227.072 123.611429 257.316571 157.257143z" fill="#000000"></path>
</svg>
