<svg xmlns="http://www.w3.org/2000/svg" xmlns:xlink="http://www.w3.org/1999/xlink" width="80" height="80" viewBox="0 0 80 80" fill="none"><path fill="#222326" d="M28 18L52 18C55.3137 18 58 20.6863 58 24L58 56C58 59.3137 55.3137 62 52 62L28 62C24.6863 62 22 59.3137 22 56L22 24C22 20.6863 24.6863 18 28 18ZM28 22C26.8954 22 26 22.8954 26 24L26 56C26 57.1046 26.8954 58 28 58L52 58C53.1046 58 54 57.1046 54 56L54 24C54 22.8954 53.1046 22 52 22L28 22Z"></path><path stroke="#4FA075" stroke-width="4" stroke-linejoin="round" stroke-linecap="round" d="M18.3717 37.0775C16.2271 38.6268 15 40.425 15 42.3427C15 48.1656 26.3137 52.886 40.2699 52.886C54.2261 52.886 65.5398 48.1656 65.5398 42.3427C65.5398 40.3929 64.2713 38.5667 62.0598 37"></path></svg>
