<svg t="1778093135064" class="icon" viewBox="0 0 1024 1024" version="1.1" xmlns="http://www.w3.org/2000/svg" p-id="22699">
  <path d="M669.696 715.2128m-179.0976 0a179.0976 179.0976 0 1 0 358.1952 0 179.0976 179.0976 0 1 0-358.1952 0Z" fill="#FFBE0A" p-id="22700"></path>
  <path d="M472.6272 531.456h13.9264c1.4848 0 2.9184-0.1024 4.352-0.3072 115.9168-5.888 208.4352-102.0928 208.4352-219.4432 0-121.1392-98.56-219.7504-219.7504-219.7504S259.8912 190.5664 259.8912 311.7056c0 69.632 32.6144 131.7888 83.3024 172.0832-135.9872 52.224-232.8064 184.1152-232.8064 338.2272 0 41.8816 34.048 75.9296 75.9296 75.9296h260.5568c19.8144 0 35.84-16.0256 35.84-35.84s-16.0256-35.84-35.84-35.84H186.3168c-2.3552 0-4.2496-1.8944-4.2496-4.2496 0-160.2048 130.3552-290.56 290.56-290.56z m6.9632-367.7696c81.664 0 148.0704 66.4064 148.0704 148.0704S561.2544 459.776 479.5904 459.776 331.5712 393.3696 331.5712 311.7056s66.4064-148.0192 148.0192-148.0192z" fill="#34332E" p-id="22701"></path>
  <path d="M888.0128 639.1808h-109.7216v-109.7216c0-19.8144-16.0256-35.84-35.84-35.84s-35.84 16.0256-35.84 35.84v109.7216h-109.7216c-19.8144 0-35.84 16.0256-35.84 35.84s16.0256 35.84 35.84 35.84h109.7216v109.7216c0 19.8144 16.0256 35.84 35.84 35.84s35.84-16.0256 35.84-35.84v-109.7216h109.7216c19.8144 0 35.84-16.0256 35.84-35.84s-16.0256-35.84-35.84-35.84z" fill="#34332E" p-id="22702"></path>
</svg>
