<svg xmlns="http://www.w3.org/2000/svg" xmlns:xlink="http://www.w3.org/1999/xlink" width="78" height="26" viewBox="0 0 78 26" fill="none"><g filter="url(#filter_lHui-ZJXomcUi0TSMPKyV)"><path d="M3 2L11.3099 2C11.7056 2 12.0755 2.07859 12.4196 2.23578C12.7637 2.39297 13.0648 2.61026 13.3229 2.88766C13.5809 3.16505 13.7831 3.48867 13.9293 3.85853C14.0756 4.22839 14.1487 4.62598 14.1487 5.05132L14.1487 15.5922L11.0776 15.5922L11.0776 5.6061C11.0776 5.3472 11.0002 5.13454 10.8454 4.9681C10.6905 4.80166 10.4927 4.71845 10.2518 4.71845L6.07105 4.71845L6.07105 15.5922L3 15.5922L3 2ZM24.291 18.9479C24.291 19.3732 24.2178 19.7708 24.0716 20.1407C23.9253 20.5105 23.7232 20.8342 23.4651 21.1116C23.207 21.389 22.906 21.6062 22.5619 21.7634C22.2178 21.9206 21.8479 21.9992 21.4522 21.9992L19.1037 21.9992L19.9553 19.2808L20.4457 19.2808C20.6693 19.2808 20.8586 19.1976 21.0134 19.0311C21.1683 18.8647 21.2457 18.6613 21.2457 18.4209L21.2457 6.04915L14.7423 6.04915L14.7423 3.33071L21.2457 3.33071L21.2457 2.0547L24.291 2.0547L24.291 3.33071L25.6587 3.33071L25.6587 6.04915L24.291 6.04915L24.291 18.9479ZM30.4965 8.73986L27.8126 8.73986L30.8062 2.0547L34.4967 2.0547L32.7418 5.96593L34.2128 5.96593L34.2128 21.9437L30.4965 21.9437L30.4965 8.73986ZM48.51 2.084L48.51 4.60827L50.3165 4.60827L50.3165 7.32672L48.51 7.32672L48.51 19.3378C48.51 19.7077 48.4454 20.0498 48.3164 20.3642C48.1874 20.6785 48.0153 20.9513 47.8003 21.1825C47.5852 21.4136 47.3271 21.5986 47.0261 21.7373C46.725 21.876 46.411 21.9453 46.0841 21.9453L41.6969 21.9453L42.6517 19.532L44.226 19.532C44.4496 19.532 44.6389 19.4488 44.7937 19.2823C44.9486 19.1159 45.026 18.9125 45.026 18.6721L45.026 7.32672L34.9612 7.32672L34.9612 4.60827L45.026 4.60827L45.026 2.084L48.51 2.084ZM54.3801 5.46741L57.735 5.46741L55.9801 2.1387L52.6252 2.1387L54.3801 5.46741ZM71.0773 16.3962C71.2665 16.3962 71.4257 16.3315 71.5547 16.2021C71.6838 16.0726 71.7483 15.9062 71.7483 15.7028L71.7483 15.2312L68.574 15.2312L68.574 18.4489L65.2449 18.4489L65.2449 15.2312L62.019 15.2312L62.019 18.4489L58.8705 18.4489L58.8705 6.65977L61.7867 6.65977L60.9867 5.30054L64.4707 5.30054L65.2707 6.65977L67.4385 6.65977L69.0127 4.55158L58.8705 4.55158L58.8705 2.4434L74.1483 2.4434L71.3096 6.65977L72.5999 6.65977C72.9268 6.65977 73.2365 6.72911 73.529 6.86781C73.8214 7.00651 74.0752 7.19606 74.2903 7.43647C74.5053 7.67687 74.6731 7.95889 74.7935 8.28251C74.914 8.60614 74.9742 8.94363 74.9742 9.29499L74.9742 16.1189C74.9742 16.4702 74.9097 16.8031 74.7806 17.1175C74.6516 17.4318 74.4795 17.7046 74.2645 17.9358C74.0494 18.1669 73.7956 18.3472 73.5032 18.4767Q73.0644 18.6709 72.5741 18.6709L71.1547 18.6709L70.1224 16.3962L71.0773 16.3962ZM54.5091 8.79577L52.5994 14.8152L54.4317 14.8152L52.5994 21.861L55.593 21.861L55.8511 20.8069L56.6511 21.861L75 21.861L75 19.3644L58.4834 19.3644L56.7285 16.9511L57.7866 12.3187L56.3414 12.3187L58.1996 6.2715L52.5994 6.2715L52.5994 8.79577L54.5091 8.79577ZM16.8585 7.0762L19.6973 7.0762L17.865 21.9722L15.052 21.9722L16.8585 7.0762ZM9.89047 14.26L8.9098 16.5623L11.1292 16.5623L13.7874 21.9992L10.6389 21.9992L8.5743 17.3113L6.56135 21.9992L3.1548 21.9992L7.15491 13.4833L7.15491 8.6289L9.89047 8.6289L9.89047 14.26ZM65.2449 8.7676L62.019 8.7676L62.019 10.0159L65.2449 10.0159L65.2449 8.7676ZM71.7741 9.43334C71.7397 9.22992 71.6623 9.06811 71.5418 8.9479C71.4214 8.8277 71.2665 8.7676 71.0773 8.7676L68.574 8.7676L68.574 10.0159L71.7483 10.0159L71.7483 9.43334L71.7741 9.43334ZM41.6969 18.1172L38.4968 18.1172L36.2 9.3516L39.4001 9.3516L41.6969 18.1172ZM65.2449 13.262L65.2449 12.0137L62.019 12.0137L62.019 13.262L65.2449 13.262ZM71.7483 13.262L71.7483 12.0137L68.574 12.0137L68.574 13.262L71.7483 13.262Z" fill-rule="evenodd" fill="#4FA075"></path></g><defs><filter id="filter_lHui-ZJXomcUi0TSMPKyV" x="0" y="0" width="78" height="26" filterUnits="userSpaceOnUse" color-interpolation-filters="sRGB"><feFlood flood-opacity="0" result="feFloodId_lHui-ZJXomcUi0TSMPKyV"/><feColorMatrix in="SourceAlpha" type="matrix" values="0 0 0 0 0 0 0 0 0 0 0 0 0 0 0 0 0 0 127 0" result="hardAlpha_lHui-ZJXomcUi0TSMPKyV"/><feOffset dx="0" dy="1"/><feGaussianBlur stdDeviation="1.5"/><feComposite in2="hardAlpha_lHui-ZJXomcUi0TSMPKyV" operator="out"/><feColorMatrix type="matrix" values="0 0 0 0 0 0 0 0 0 0 0 0 0 0 0 0 0 0 0.1 0"/><feBlend mode="normal" in2="feFloodId_lHui-ZJXomcUi0TSMPKyV" result="dropShadow_1_lHui-ZJXomcUi0TSMPKyV"/><feBlend mode="normal" in="SourceGraphic" in2="dropShadow_1_lHui-ZJXomcUi0TSMPKyV" result="shape_lHui-ZJXomcUi0TSMPKyV"/></filter></defs></svg>
