<svg xmlns="http://www.w3.org/2000/svg" xmlns:xlink="http://www.w3.org/1999/xlink" width="80" height="80" viewBox="0 0 80 80" fill="none"><path fill="#222326" d="M21.2433 21.5058L36.9732 15.0765Q38.4282 14.4818 40 14.4818Q41.5718 14.4818 43.0268 15.0765L58.7567 21.5058C59.5086 21.8132 60 22.5448 60 23.3571L60 42.3353Q60 44.5281 59.4743 46.6546Q58.9559 48.7515 57.9555 50.6672Q56.9551 52.583 55.5306 54.2068Q54.086 55.8533 52.2865 57.1065L44.8347 62.2959Q43.8306 62.9951 42.6661 63.3618Q41.5263 63.7206 40.33 63.7306Q39.1338 63.7407 37.9881 63.401Q36.8176 63.0539 35.8019 62.3716L27.9626 57.1054Q26.1098 55.8607 24.6187 54.2033Q23.149 52.5697 22.1149 50.6292Q21.0808 48.6888 20.5443 46.5578Q20 44.3959 20 42.1638L20 23.3571C20 22.5448 20.4914 21.8132 21.2433 21.5058ZM22.7567 25.2085L22 23.3571L24 23.3571L24 42.1638Q24 43.9001 24.4233 45.5813Q24.8405 47.2386 25.6449 48.748Q26.4493 50.2575 27.5924 51.528Q28.7519 52.8168 30.1931 53.785L38.0324 59.0513Q39.0593 59.7411 40.2965 59.7308Q41.5336 59.7204 42.5488 59.0134L50.0006 53.824Q51.4004 52.8492 52.5237 51.5688Q53.6317 50.3059 54.4099 48.8157Q55.188 47.3255 55.5912 45.6946Q56 44.0411 56 42.3353L56 23.3571L58 23.3571L57.2433 25.2085L41.5134 18.7792Q40.7859 18.4818 40 18.4818Q39.2141 18.4818 38.4866 18.7792L22.7567 25.2085Z"></path><path stroke="#4FA075" stroke-width="4" stroke-linejoin="round" stroke-linecap="round" d="M32.7056 39.5L39 45.127L49.5835 35"></path></svg>
