<svg xmlns="http://www.w3.org/2000/svg" width="16.038" height="16.04" viewBox="0 0 16.038 16.04">
  <path id="路径_120822" data-name="路径 120822" d="M8.915,1.066,8.77.969H7.123v.1L6.929,2.18V2.52l-.048.145-.145.048-.291.1a5.427,5.427,0,0,0-.969.436l-.291.145-.145.1-.194-.145-.194-.194-.872-.678H3.634l-.048.048L2.52,3.586l-.048.145v.048l.678.872.242.194.1.145-.1.194-.145.291a5.378,5.378,0,0,0-.436.969l-.1.339v.194H2.18l-1.066.1-.048.048-.1.145V8.915l.1.048,1.066.1.339.048h.145l.048.194.1.291a5.378,5.378,0,0,0,.436.969l.194.388v.194l-.242.291-.678.824v.048l.048.145,1.066,1.066.1.048h.048a.1.1,0,0,0,.048,0l.921-.678.145-.194.194-.1.145.1.291.145a5.427,5.427,0,0,0,.969.388l.339.1.194.048v.194l.048.291.1,1.066.048.1H8.915l.048-.1.1-1.066.048-.291v-.194H9.3l.291-.194a5.427,5.427,0,0,0,.969-.388l.388-.1.1-.1.1.1.291.194.824.678h.194l1.114-1.114v-.194l-.678-.824-.194-.291-.1-.1.1-.145.145-.291a5.427,5.427,0,0,0,.388-.969l.1-.388.048-.145h.485l1.066-.194h.1V7.074h-.1l-1.066-.145h-.291l-.194-.048V6.735l-.194-.291a5.427,5.427,0,0,0-.388-.969l-.1-.291-.1-.145.1-.194.194-.194.678-.872V3.586L12.452,2.52H12.4l-.1-.1h-.1l-.775.727-.291.242-.1.048L10.9,3.392l-.291-.145a5.427,5.427,0,0,0-.969-.436l-.388-.1H9.109V2.132L8.915,1.114ZM8.043,10.95A2.941,2.941,0,1,1,10.95,8.043,2.907,2.907,0,0,1,8.043,10.95Zm0-4.845A1.951,1.951,0,1,0,9.981,8.043,1.938,1.938,0,0,0,8.043,6.105ZM7.268,0h1.5a1.1,1.1,0,0,1,.775.291,1.114,1.114,0,0,1,.436.678l.1.872a6.4,6.4,0,0,1,.824.388l.727-.533a1.066,1.066,0,0,1,.678-.242,1.26,1.26,0,0,1,.872.388l1.066,1.018a1.289,1.289,0,0,1,.291.775,1.114,1.114,0,0,1-.242.775l-.485.727a6.4,6.4,0,0,1,.339.872l.872.1a.854.854,0,0,1,.727.388,1.1,1.1,0,0,1,.291.775v1.5a1.26,1.26,0,0,1-.291.775,1.114,1.114,0,0,1-.727.436l-.872.1a6.445,6.445,0,0,1-.339.824l.533.727a.894.894,0,0,1,.242.775,1.26,1.26,0,0,1-.339.775l-1.066,1.066a1.26,1.26,0,0,1-.872.291,1.114,1.114,0,0,1-.678-.194l-.727-.533a6.3,6.3,0,0,1-.824.339l-.1.872a1.114,1.114,0,0,1-.436.727,1.26,1.26,0,0,1-.775.291H7.316a1.26,1.26,0,0,1-.872-.291,1.114,1.114,0,0,1-.339-.727l-.1-.872a6.493,6.493,0,0,1-.872-.339l-.678.533a1.066,1.066,0,0,1-.727.242,1.26,1.26,0,0,1-.824-.339L1.841,13.179a1.26,1.26,0,0,1-.388-.775,1.067,1.067,0,0,1,.242-.775l.581-.727a6.3,6.3,0,0,1-.388-.824l-.872-.1a1.114,1.114,0,0,1-.727-.436A1.26,1.26,0,0,1,0,8.77V7.316a1.185,1.185,0,0,1,.291-.872,1.114,1.114,0,0,1,.678-.339l.921-.1a6.444,6.444,0,0,1,.388-.872L1.7,4.458a1.114,1.114,0,0,1-.242-.824,1,1,0,0,1,.388-.727L2.859,1.841a1.26,1.26,0,0,1,.872-.388,1.066,1.066,0,0,1,.678.242l.727.581a6.347,6.347,0,0,1,.872-.388l.1-.872A.92.92,0,0,1,6.493.291,1.26,1.26,0,0,1,7.268,0Z" fill="#1d7ee6"/>
</svg>
