<svg version="1.0" xmlns="http://www.w3.org/2000/svg" width="800.000000" height="800.000000" viewBox="0 0 800.000000 800.000000" preserveAspectRatio="xMidYMid meet">
  <metadata>
    <rdf:RDF xmlns:rdf="http://www.w3.org/1999/02/02-rdf-syntax-ns#" xmlns:rdfs="http://www.w3.org/2000/01/rdf-schema#" xmlns:dc="http://purl.org/dc/elements/1.1/">
      <rdf:Description dc:format="image/svg+xml" dc:Label="1" dc:ContentProducer="001191330110MACRLGPT8B00000" dc:ProduceID="377993167" dc:ReservedCode1="CGPpr2Ub5fwb/kYvXlxlvH3xFfegUE9HJkcLDeNz078=" dc:ContentPropagator="001191330110MACRLGPT8B00000" dc:PropagateID="377993167" dc:ReservedCode2="CGPpr2Ub5fwb/kYvXlxlvH3xFfegUE9HJkcLDeNz078="/>
    </rdf:RDF>
  </metadata>
  <g transform="translate(-91.074293,1004.945997) scale(0.129138,-0.129138)" fill="#ffffff" stroke="none">
    <path d="M4134 6291 c-96 -58 -118 -178 -48 -261 47 -55 45 -55 397 -60 l328 -5 -327 -325 c-383 -380 -394 -391 -416 -433 -23 -40 -23 -118 -1 -164 37 -78 154 -116 229 -75 18 9 200 183 405 386 l374 369 5 -329 c5 -317 6 -330 27 -364 12 -20 41 -46 63 -59 57 -32 142 -27 193 12 68 52 68 48 65 658 l-3 545 -28 42 c-15 23 -45 51 -67 62 -38 19 -57 20 -602 20 -534 0 -565 -1 -594 -19z"/>
    <path d="M2617 6139 c-175 -28 -338 -208 -413 -454 -24 -81 -27 -106 -27 -245 -1 -123 4 -174 20 -246 59 -254 240 -620 448 -906 199 -275 497 -574 775 -779 303 -222 636 -388 879 -435 109 -22 313 -19 429 5 324 68 546 316 503 560 -17 96 -49 158 -121 234 -71 76 -137 120 -307 205 -181 91 -313 111 -481 71 -82 -19 -223 -95 -311 -166 -148 -119 -123 -110 -186 -72 -121 73 -315 230 -445 359 -134 134 -327 374 -383 479 l-26 48 77 105 c87 117 161 253 187 342 25 85 16 234 -19 340 -39 114 -141 316 -195 383 -105 130 -259 195 -404 172z"/>
  </g>
</svg>

