<svg xmlns="http://www.w3.org/2000/svg" width="16.814" height="19.216" viewBox="0 0 16.814 19.216">
  <g id="组_43279" data-name="组 43279" transform="translate(-25 -248.392)">
    <path id="路径_400" data-name="路径 400" d="M127.512,83.086a2.4,2.4,0,0,0,2.4-2.4h-4.8A2.4,2.4,0,0,0,127.512,83.086Z" transform="translate(-94.105 184.522)" fill="#e8575a"/>
    <path id="路径_401" data-name="路径 401" d="M135.593,77.465c-.725-.779-2.081-1.951-2.081-5.79a5.926,5.926,0,0,0-4.8-5.822v-.782a1.2,1.2,0,1,0-2.4,0v.782a5.926,5.926,0,0,0-4.8,5.822c0,3.839-1.357,5.011-2.081,5.79a1.173,1.173,0,0,0-.316.817,1.2,1.2,0,0,0,1.2,1.2h14.406a1.2,1.2,0,0,0,1.207-1.195v-.006a1.172,1.172,0,0,0-.323-.815Zm-13.954.214A9.4,9.4,0,0,0,123.31,71.7v-.021a4.2,4.2,0,1,1,8.407,0V71.7a9.4,9.4,0,0,0,1.671,5.982H121.639Z" transform="translate(-94.105 184.522)" fill="#fbc03a"/>
  </g>
</svg>
